<svg xmlns="http://www.w3.org/2000/svg" xmlns:xlink="http://www.w3.org/1999/xlink" version="1.1" x="0px" y="0px" viewBox="-198.375 519.626 100 125" enable-background="new -198.375 519.626 100 100" xml:space="preserve"><path d="M-170.135,578.303c0.454-0.156,2.115-0.154-0.188-2.578c3.122,3.455,9.589-4.169,1.047-6.586  c-2.301-0.651-8.682-0.416-7.771,3.715c0.182,0.431,2.15,2.244,2.212,2.066c-2.55-0.378-0.849,3.362,1.754,3.695  C-172.578,578.681-170.615,578.468-170.135,578.303z M-169.99,583.114c-4.578-3.207-9.181,1.028-4.439,2.784  c3.362,1.243,3.766,0.644,6.814,1.127c2.039,0.325,13.783,0.953,13.983-2.698c-0.486,0.044-0.053,0.966,0,0  c-3.618,0.328-7.356,1.097-8.933,1.4c-1.171,0.225-2.387-0.99-3.842-1.492L-169.99,583.114z M-149.358,559.469  c3.183-0.183,5.85,3.88,5.85,3.88s-2.667,4.273-5.577,4.183c-2.91-0.091-2.778-1.119-4.82-1.606  C-155.935,565.44-152.541,559.651-149.358,559.469z M-150.263,561.505c0.432-0.563,1.617,1.691,1.793,0.178  c0.061-0.516-0.121-0.758-2.091-0.729c-1.97,0.031-2.849,4.293-1.606,5.002c0.958,0.547,1.654,1.482,1.351,0.274  C-151.072,565.221-150.898,562.33-150.263,561.505z M-169.826,555.935c2.425,0,3.212,1.576,3.273,2.455  c0.061,0.88-1.516,4.335-3.092,4.335c-0.74,0-2.711-1.032-2.91-2.622C-172.778,558.31-171.113,555.935-169.826,555.935z   M-170.161,556.999c0.454-0.649-1.74,0.463-1.586,2.464c0.154,2,2.197,2.897,1.749,2.287c-1.653-2.251-0.432-5.154-0.878-4.322  c0.447,0.337,1.387-0.391,0.327-0.566C-170.617,556.85-170.201,557.057-170.161,556.999z M-167.596,557.553  c-0.243,0-0.439,0.21-0.439,0.47s0.197,0.47,0.439,0.47s0.439-0.21,0.439-0.47S-167.353,557.553-167.596,557.553z M-163.045,528.876  c1.307,0,3.15,1.674,5.478,4.975c1.695,2.403,3.252,5.148,3.471,6.118c0.121,0.539,1.139,1.682,1.626,1.826c0,0,0,0,0,0  c0.006,0,0.044,0.005,0.125,0.005c0.148,0,0.355-0.015,0.595-0.031c0.375-0.026,0.841-0.06,1.385-0.06  c1.927,0,3.748,0.467,5.508,0.918c1.671,0.428,3.25,0.833,4.835,0.833c0,0,0,0,0.001,0c0.154,0,0.308-0.005,0.458-0.012  c0.231-0.013,0.936-0.35,1.299-0.623c1.152-0.864,2.897-2.759,4.744-4.765c3.9-4.235,6.387-6.808,8.028-6.808  c0.476,0,0.885,0.212,1.152,0.597c0.87,1.252,1.222,2.171,1.395,3.642c0.019,0.161,0.042,0.34,0.068,0.538  c0.309,2.388,0.95,7.336-1.269,13.924c0.109,0.855,0.458,2.78,1.057,3.554c4.18,5.394,6.881,13.748,6.881,21.286  c0,8.841-3.556,17.152-10.013,23.401c-6.45,6.243-15.025,9.682-24.144,9.682c-9.12,0-17.694-3.438-24.145-9.682  c-6.457-6.249-10.013-14.561-10.013-23.401c0-6.207,1.676-12.184,4.845-17.283c0.402-0.646,0.674-1.374,0.962-2.144  c0.422-1.128,0.859-2.293,1.741-3.244c0.948-1.022,2.3-1.735,3.608-2.426c0.818-0.432,1.59-0.839,2.231-1.3  c1.727-1.241,3.596-2.329,5.556-3.233c0.429-0.506,0.281-3.615,0.183-5.679c-0.199-4.196-0.406-8.535,1.285-10.179  C-163.821,529.025-163.452,528.876-163.045,528.876 M-163.045,523.876c-1.712,0-3.328,0.655-4.552,1.846  c-3.305,3.213-3.044,8.694-2.793,13.996c0.025,0.524,0.067,1.41,0.089,2.24c-1.301,0.723-2.556,1.519-3.752,2.379  c-0.359,0.258-0.98,0.586-1.638,0.933c-1.535,0.811-3.425,1.808-4.95,3.453c-1.552,1.675-2.248,3.533-2.756,4.891  c-0.194,0.517-0.388,1.035-0.524,1.254c-3.665,5.896-5.601,12.785-5.601,19.926c0,10.208,4.097,19.795,11.535,26.994  c7.389,7.15,17.198,11.089,27.623,11.089c10.424,0,20.233-3.938,27.622-11.089c7.438-7.199,11.535-16.786,11.535-26.994  c0-8.561-2.936-17.722-7.682-24.025c-0.038-0.123-0.08-0.285-0.121-0.469c2.107-7.073,1.403-12.513,1.092-14.911  c-0.025-0.193-0.044-0.338-0.059-0.468c-0.27-2.293-0.923-4.005-2.256-5.923c-1.192-1.718-3.159-2.744-5.259-2.744  c-3.951,0-7.036,3.35-11.706,8.421c-1.21,1.313-2.665,2.894-3.576,3.733c-0.812-0.104-1.767-0.349-2.83-0.62  c-1.891-0.484-4.006-1.027-6.419-1.075c-1.137-2.399-3-5.092-3.459-5.743C-155.954,527.462-159.025,523.876-163.045,523.876  L-163.045,523.876z"/></svg>
